# xmcd
#
# Track frame offsets:
#	150
#	14837
#	29317
#	45884
#	58037
#	73774
#	89274
#	111473
#	124211
#	134572
#	148479
#	160047
#	176482
#	188214
#	198872
#	211605
#	223580
#	240099
#
# Disc length: 3355 seconds
#
# Revision: 2
# Processed by: cddbd v1.5.2PL0 Copyright (c) Steve Scherf et al.
# Submitted via: EZCDAudioConverter 1.0.8.1
#
DISCID=070d1912
DTITLE=Hāgenskalna Muzikanti - Nenoskārstai vaj'dzībai
DYEAR=2004
DGENRE=Folklore
TTITLE0=Es staigāju gan še, gan tur
TTITLE1=No rīta mazā gaismiņā
TTITLE2=Sen gadi pagājuši
TTITLE3=Vandzenes padespaņs
TTITLE4=Reiz kādā maija dienā
TTITLE5=Atgriezies, atgriezies
TTITLE6=Brūklenājs
TTITLE7=Aleksandrs III
TTITLE8=Apseglots zirgs pie krodziņa
TTITLE9=Alus, alus, nāc manā iekšā
TTITLE10=Dzēru, dzēru krogā
TTITLE11=Mandolīna
TTITLE12=Volcīša valsis
TTITLE13=Būt māte mani maziņu
TTITLE14=Man bija līgava
TTITLE15=Sēju vēju vainadziņi
TTITLE16=Par zilām actiņām
TTITLE17=Ziemeru polka
EXTD=
EXTT0=
EXTT1=
EXTT2=
EXTT3=
EXTT4=
EXTT5=
EXTT6=
EXTT7=
EXTT8=
EXTT9=
EXTT10=
EXTT11=
EXTT12=
EXTT13=
EXTT14=
EXTT15=
EXTT16=
EXTT17=
PLAYORDER=
